<svg width="80" height="80" viewBox="0 0 80 80" fill="none" xmlns="http://www.w3.org/2000/svg">
<circle cx="40" cy="40" r="40" fill="#E1E1E1"/>
<circle cx="41.5" cy="38.5" r="38.5" fill="white"/>
<g clip-path="url(#clip0_42_12)">
<path d="M35.619 68.2979C34.7553 68.3895 34.0225 68.4811 33.2897 68.5596C29.4817 68.9391 26.1578 67.9053 23.6453 64.9348C22.8602 64.0057 22.4152 62.8018 21.7479 61.768C20.7141 60.1453 19.6541 58.5358 18.5156 56.9785C18.1231 56.442 17.4426 56.128 16.9192 55.6699C16.749 55.526 16.6967 55.2512 16.5789 55.0287C16.8145 54.9371 17.0369 54.7801 17.2725 54.7539C20.2822 54.4791 22.4022 55.8662 23.8809 58.3657C25.726 61.4801 28.3955 63.1813 32.0203 63.1813C33.0672 63.1813 34.1141 62.828 35.1479 62.5924C35.3442 62.5401 35.5797 62.2391 35.6059 62.0166C35.7891 60.6557 35.9592 59.2948 36.5873 58.0516C36.8229 57.5936 37.0977 57.1617 37.3725 56.6906C36.3125 56.4813 35.2918 56.3242 34.2842 56.0756C29.6387 54.8979 25.8045 52.5686 23.5799 48.1455C22.7162 46.4182 22.232 44.56 22.1666 42.6233C22.0619 39.6397 22.1012 36.643 22.7031 33.6987C23.135 31.6311 23.9201 29.7074 25.4904 28.2156C25.8307 27.8885 25.8961 27.6006 25.7129 27.1033C24.8361 24.6563 24.7445 22.1699 25.4904 19.6705C25.6475 19.134 25.7914 18.5975 25.9485 18.0348C29.534 18.7153 31.667 21.1362 33.6692 23.8188C35.7367 22.2877 38.1838 22.1569 40.5654 21.9998C43.392 21.8166 46.2317 21.8559 49.0451 22.3139C50.5108 22.5494 51.4137 22.8504 52.84 23.701C54.0701 22.4317 55.2217 21.1492 56.491 19.9846C57.4986 19.0555 58.7549 18.4666 60.1158 18.1526C60.4953 18.061 60.6916 18.1002 60.8486 18.519C61.9086 21.411 62.0656 24.2899 60.901 27.1819C60.744 27.5744 60.757 27.8492 61.0842 28.1633C62.9686 29.9561 63.8322 32.2723 64.1201 34.7717C64.3818 37.0879 64.5258 39.4172 64.5258 41.7465C64.5258 45.0573 63.5443 48.0932 61.4637 50.6973C59.9981 52.5424 58.1006 53.8641 55.9545 54.8586C53.8738 55.8139 51.7016 56.3635 49.4508 56.6514C49.3985 56.6645 49.3461 56.7037 49.2545 56.743C50.7986 58.9545 51.0473 61.4408 51.0211 64.0188C50.9818 67.7744 50.9949 71.517 51.0211 75.2727C51.0211 75.8615 50.5758 76.5 50 76.5C45.2248 77.9945 40.1613 78.4945 36 77C35.5 77 35.5797 75.8223 35.5797 75.2596C35.6059 73.2313 35.5928 71.203 35.5928 69.1746C35.619 68.8737 35.619 68.6119 35.619 68.2979Z" fill="black"/>
</g>
<path d="M51.7169 78.2455C46.3686 79.884 40.7362 80.3825 35.1832 79.7089L35.5 76.5C40.7032 77.1312 45.9675 77.3717 50.9789 75.8364L51.7169 78.2455Z" fill="#E1E1E1"/>
<defs>
<clipPath id="clip0_42_12">
<rect width="67" height="67" fill="white" transform="translate(7 10)"/>
</clipPath>
</defs>
</svg>
