<svg width="80" height="80" viewBox="0 0 80 80" fill="none" xmlns="http://www.w3.org/2000/svg">
<circle cx="40" cy="40" r="40" fill="#E1E1E1"/>
<circle cx="41.5" cy="38.5" r="38.5" fill="white"/>
<path d="M50.1852 16.1914H32.7663C24.7511 16.1914 18.291 22.6524 18.291 30.6306V47.9705C18.291 55.9492 24.7511 62.5098 32.7663 62.5098H50.1852C58.2005 62.5098 64.8086 55.9492 64.8086 47.9705V30.6306C64.8086 22.6524 58.2005 16.1914 50.1852 16.1914ZM60.4258 47.9705C60.4258 53.5474 55.7878 58.127 50.1852 58.127H32.7663C27.1633 58.127 22.5742 53.5474 22.5742 47.9705V30.6306C22.5742 25.054 27.1633 20.4746 32.7663 20.4746H50.1852C55.7878 20.4746 60.4258 25.054 60.4258 30.6306V47.9705Z" fill="url(#paint0_linear_164_5)"/>
<path d="M41.4757 27.7408C35.0627 27.7408 29.8632 32.9166 29.8632 39.301C29.8632 45.6845 35.0627 50.8602 41.4757 50.8602C47.8889 50.8602 53.0882 45.6845 53.0882 39.301C53.0882 32.9166 47.8889 27.7408 41.4757 27.7408ZM41.4757 46.5256C37.475 46.5256 34.2182 43.2832 34.2182 39.301C34.2182 35.315 37.475 32.0759 41.4757 32.0759C45.4762 32.0759 48.7334 35.3151 48.7334 39.301C48.7334 43.2832 45.4762 46.5256 41.4757 46.5256Z" fill="url(#paint1_linear_164_5)"/>
<path d="M53.9592 25.3335C53.1044 25.3335 52.4114 26.0232 52.4114 26.8738C52.4114 27.7244 53.1044 28.4144 53.9592 28.4144C54.8131 28.4144 55.5063 27.7244 55.5063 26.8738C55.5063 26.0232 54.8131 25.3335 53.9592 25.3335Z" fill="url(#paint2_linear_164_5)"/>
<defs>
<linearGradient id="paint0_linear_164_5" x1="22.5646" y1="58.274" x2="60.4614" y2="20.3773" gradientUnits="userSpaceOnUse">
<stop stop-color="#FFC107"/>
<stop offset="0.2211" stop-color="#F98D1C"/>
<stop offset="0.5137" stop-color="#F1423B"/>
<stop offset="0.8329" stop-color="#B93088"/>
<stop offset="0.9944" stop-color="#9C27B0"/>
</linearGradient>
<linearGradient id="paint1_linear_164_5" x1="33.2833" y1="47.4932" x2="49.6683" y2="31.1082" gradientUnits="userSpaceOnUse">
<stop stop-color="#FFC107"/>
<stop offset="0.2211" stop-color="#F98D1C"/>
<stop offset="0.5137" stop-color="#F1423B"/>
<stop offset="0.8329" stop-color="#B93088"/>
<stop offset="0.9944" stop-color="#9C27B0"/>
</linearGradient>
<linearGradient id="paint2_linear_164_5" x1="52.8673" y1="27.9656" x2="55.0506" y2="25.7823" gradientUnits="userSpaceOnUse">
<stop stop-color="#FFC107"/>
<stop offset="0.2211" stop-color="#F98D1C"/>
<stop offset="0.5137" stop-color="#F1423B"/>
<stop offset="0.8329" stop-color="#B93088"/>
<stop offset="0.9944" stop-color="#9C27B0"/>
</linearGradient>
</defs>
</svg>
