<svg width="38" height="38" viewBox="0 0 38 38" fill="none" xmlns="http://www.w3.org/2000/svg">
<g clip-path="url(#clip0_18_233)">
<path d="M13.7882 5.07153L24.4979 5.07242C27.0274 5.08855 28.3527 5.3255 29.6347 5.95238L29.9193 6.09817C31.2025 6.78444 32.2157 7.79759 32.9019 9.08079C33.6129 10.4102 33.891 11.6937 33.925 14.2261L33.9286 14.7883V25.2119L33.925 25.7742C33.891 28.3065 33.6129 29.59 32.9019 30.9194C32.2157 32.2026 31.2025 33.2158 29.9193 33.902C28.5899 34.613 27.3064 34.8911 24.774 34.9251L24.2118 34.9287H13.7882L13.2259 34.9251C10.6936 34.8911 9.41005 34.613 8.08066 33.902C6.79746 33.2158 5.78431 32.2026 5.09805 30.9194C4.38709 29.59 4.10894 28.3065 4.07501 25.7742L4.07141 25.2119L4.0723 14.5022C4.08843 11.9727 4.32538 10.6474 4.95226 9.36543L5.09805 9.08079C5.78431 7.79759 6.79746 6.78444 8.08066 6.09817C9.41005 5.38721 10.6936 5.10906 13.2259 5.07513L13.7882 5.07153ZM22.7171 20.0316L16.4515 27.5098C16.1181 27.9077 15.5438 27.9873 15.1174 27.7101L15.0343 27.6498L11.5757 24.8732L6.73282 29.639C6.78275 29.7465 6.83614 29.8528 6.89317 29.9594C7.38971 30.8878 8.11227 31.6104 9.04071 32.1069C10.0572 32.6506 11.0433 32.8641 13.2875 32.8902L13.7882 32.893H24.2118L24.7124 32.8902C26.9566 32.8641 27.9428 32.6506 28.9593 32.1069C29.8877 31.6104 30.6103 30.8878 31.1068 29.9594C31.4036 29.4043 31.6021 28.8583 31.7253 28.1116L22.7171 20.0316ZM24.2118 7.10725H13.7882L13.2875 7.11001C11.0433 7.13608 10.0572 7.34966 9.04071 7.89329C8.11227 8.38983 7.38971 9.11239 6.89317 10.0408C6.31071 11.1299 6.10713 12.1842 6.10713 14.7883V25.2119L6.10989 25.7125C6.11715 26.3372 6.13893 26.8643 6.17831 27.3218L10.7942 22.7878C11.1376 22.4505 11.6658 22.4027 12.0618 22.6603L12.1445 22.7202L15.531 25.4385L21.8302 17.9214C22.1771 17.5075 22.7812 17.4402 23.2086 17.7515L23.2866 17.8143L31.8908 25.5264L31.8928 25.2119V14.7883L31.8901 14.2877C31.864 12.0435 31.6504 11.0573 31.1068 10.0408C30.6103 9.11239 29.8877 8.38983 28.9593 7.89329C27.8701 7.31083 26.8159 7.10725 24.2118 7.10725ZM13.2321 12.5358C14.169 12.5358 14.9286 13.2953 14.9286 14.2322C14.9286 15.1692 14.169 15.9287 13.2321 15.9287C12.2952 15.9287 11.5357 15.1692 11.5357 14.2322C11.5357 13.2953 12.2952 12.5358 13.2321 12.5358Z" fill="white"/>
</g>
<defs>
<clipPath id="clip0_18_233">
<rect width="38" height="38" rx="8" fill="white"/>
</clipPath>
</defs>
</svg>
