<svg width="38" height="38" viewBox="0 0 38 38" fill="none" xmlns="http://www.w3.org/2000/svg">
<path fill-rule="evenodd" clip-rule="evenodd" d="M19 4.95825C17.1378 4.95768 15.3245 5.55405 13.8262 6.65981C12.3279 7.76558 11.2235 9.32251 10.6752 11.1021C10.1268 12.8817 10.1633 14.7902 10.7793 16.5475C11.3954 18.3048 12.5585 19.8183 14.098 20.866C11.4261 21.846 9.10864 23.6031 7.44382 25.9113C5.779 28.2195 4.84302 30.9731 4.75633 33.8177C4.74688 34.1326 4.86293 34.4384 5.07895 34.6678C5.29497 34.8972 5.59326 35.0313 5.90821 35.0408C6.22315 35.0502 6.52895 34.9342 6.75833 34.7182C6.98771 34.5022 7.12189 34.2039 7.13133 33.8889C7.22562 30.8037 8.51748 27.8765 10.7331 25.7275C12.9488 23.5785 15.9142 22.3767 19.0008 22.3767C22.0874 22.3767 25.0528 23.5785 27.2684 25.7275C29.4841 27.8765 30.776 30.8037 30.8703 33.8889C30.8715 34.047 30.9042 34.2033 30.9666 34.3486C31.029 34.4939 31.1198 34.6252 31.2337 34.7349C31.3475 34.8447 31.4822 34.9305 31.6296 34.9875C31.7771 35.0445 31.9345 35.0715 32.0926 35.0669C32.2506 35.0622 32.4061 35.0261 32.55 34.9605C32.6939 34.895 32.8233 34.8013 32.9305 34.6851C33.0377 34.5689 33.1206 34.4325 33.1744 34.2838C33.2282 34.1351 33.2517 33.9772 33.2437 33.8193C33.1573 30.9744 32.2215 28.2204 30.5566 25.912C28.8918 23.6035 26.5741 21.8461 23.902 20.866C25.4415 19.8183 26.6046 18.3048 27.2207 16.5475C27.8367 14.7902 27.8732 12.8817 27.3248 11.1021C26.7765 9.32251 25.6721 7.76558 24.1738 6.65981C22.6755 5.55405 20.8622 4.95768 19 4.95825ZM12.6667 13.6666C12.6667 11.9869 13.3339 10.376 14.5217 9.18824C15.7094 8.00051 17.3203 7.33325 19 7.33325C20.6797 7.33325 22.2906 8.00051 23.4783 9.18824C24.6661 10.376 25.3333 11.9869 25.3333 13.6666C25.3333 15.3463 24.6661 16.9572 23.4783 18.1449C22.2906 19.3327 20.6797 19.9999 19 19.9999C17.3203 19.9999 15.7094 19.3327 14.5217 18.1449C13.3339 16.9572 12.6667 15.3463 12.6667 13.6666Z" fill="#5A5A5A"/>
</svg>
