<svg width="38" height="38" viewBox="0 0 38 38" fill="none" xmlns="http://www.w3.org/2000/svg">
<path d="M32.8237 19.1732L30.2701 16.6226L20.095 6.44855C19.9527 6.30634 19.7837 6.19354 19.5977 6.11657C19.4116 6.03961 19.2123 6 19.011 6C18.8096 6 18.6103 6.03961 18.4242 6.11657C18.2382 6.19354 18.0692 6.30634 17.9269 6.44855L7.73652 16.616L5.17634 19.1732C5.06028 19.2976 4.9971 19.4621 5.0001 19.6321C5.00311 19.8022 5.07206 19.9644 5.19244 20.0846C5.31281 20.2048 5.47522 20.2737 5.64543 20.2767C5.81564 20.2797 5.98037 20.2166 6.10492 20.1007L7.54379 18.6635V32.4688C7.54379 32.8749 7.70531 33.2643 7.99281 33.5515C8.28031 33.8387 8.67025 34 9.07683 34H15.0579C15.4645 34 15.8544 33.8387 16.1419 33.5515C16.4294 33.2643 16.5909 32.8749 16.5909 32.4688V23.7188C16.5909 23.6608 16.614 23.6051 16.6551 23.5641C16.6961 23.5231 16.7519 23.5 16.8099 23.5H21.1901C21.2481 23.5 21.3039 23.5231 21.3449 23.5641C21.386 23.6051 21.4091 23.6608 21.4091 23.7188V32.4688C21.4091 32.8749 21.5706 33.2643 21.8581 33.5515C22.1456 33.8387 22.5355 34 22.9421 34H28.9297C29.1311 34 29.3304 33.9604 29.5164 33.8834C29.7024 33.8065 29.8714 33.6937 30.0138 33.5515C30.1561 33.4093 30.269 33.2405 30.3461 33.0547C30.4231 32.869 30.4628 32.6698 30.4628 32.4688V18.6701L31.8951 20.1007C32.0196 20.2166 32.1844 20.2797 32.3546 20.2767C32.5248 20.2737 32.6872 20.2048 32.8076 20.0846C32.9279 19.9644 32.9969 19.8022 32.9999 19.6321C33.0029 19.4621 32.9397 19.2976 32.8237 19.1732ZM29.1487 32.4688C29.1487 32.5268 29.1257 32.5824 29.0846 32.6234C29.0435 32.6645 28.9878 32.6875 28.9297 32.6875H22.9421C22.884 32.6875 22.8283 32.6645 22.7872 32.6234C22.7462 32.5824 22.7231 32.5268 22.7231 32.4688V23.7188C22.7231 23.3127 22.5616 22.9232 22.2741 22.636C21.9866 22.3489 21.5966 22.1875 21.1901 22.1875H16.8099C16.4034 22.1875 16.0134 22.3489 15.7259 22.636C15.4384 22.9232 15.2769 23.3127 15.2769 23.7188V32.4688C15.2769 32.5268 15.2538 32.5824 15.2128 32.6234C15.1717 32.6645 15.116 32.6875 15.0579 32.6875H9.07683C9.01875 32.6875 8.96305 32.6645 8.92197 32.6234C8.8809 32.5824 8.85783 32.5268 8.85783 32.4688V17.3532L18.8445 7.37604C18.8855 7.3353 18.941 7.31243 18.9989 7.31243C19.0568 7.31243 19.1123 7.3353 19.1533 7.37604L29.1466 17.3576L29.1487 32.4688Z" fill="#5A5A5A" stroke="#5A5A5A"/>
</svg>
