<svg width="44" height="40" viewBox="0 0 44 40" fill="none" xmlns="http://www.w3.org/2000/svg">
<path d="M15.2286 5.71074H40.927C42.5088 5.71074 43.7823 6.98423 43.7823 8.56611V35.2162C43.7823 36.7981 42.5088 38.0716 40.927 38.0716H22.843L15.2286 5.71074Z" fill="#C9E2FF"/>
<path d="M28.5665 32.3757L22.843 38.0716L21.4999 32.3634L28.5665 32.3757Z" fill="#514AB5"/>
<path d="M27.1043 26.9828C26.8537 26.9828 26.7284 26.8485 26.7284 26.58V19.6835C26.7284 19.4149 26.8537 19.2806 27.1043 19.2806H29.5912C30.6976 19.2806 31.5051 19.4525 32.0135 19.7963C32.522 20.1364 32.7762 20.6915 32.7762 21.4613C32.7762 22.0342 32.5703 22.4908 32.1585 22.8309C31.7468 23.1711 31.224 23.3967 30.5902 23.5077V23.5184C30.9339 23.6473 31.1935 23.8264 31.369 24.0555C31.5444 24.2847 31.6877 24.4852 31.7987 24.6571L32.9803 26.5209C33.1773 26.8288 33.1092 26.9828 32.7762 26.9828H31.8416C31.6447 26.9828 31.4836 26.8772 31.3582 26.6659L30.2733 24.8558C30.1551 24.6625 29.9385 24.4512 29.6234 24.2221C29.3119 23.9893 29.0021 23.8729 28.6942 23.8729H28.2967V26.58C28.2967 26.8485 28.1714 26.9828 27.9207 26.9828H27.1043ZM28.2967 22.5409H29.2581C29.9743 22.5409 30.4828 22.4603 30.7835 22.2992C31.0879 22.1345 31.2401 21.8749 31.2401 21.5204C31.2401 21.1337 31.0933 20.883 30.7997 20.7684C30.5096 20.6503 30.0817 20.5912 29.516 20.5912H28.2967V22.5409ZM34.3983 23.7763V19.5761C34.3983 19.3791 34.5236 19.2806 34.7743 19.2806H35.5907C35.8413 19.2806 35.9666 19.3791 35.9666 19.5761V23.7225C35.9666 24.6893 36.1081 25.2945 36.391 25.538C36.6774 25.7779 36.9997 25.8978 37.3578 25.8978C37.7158 25.8978 38.0363 25.7779 38.3192 25.538C38.6056 25.2945 38.7489 24.6893 38.7489 23.7225V19.5761C38.7489 19.3791 38.8742 19.2806 39.1248 19.2806H39.9413C40.1919 19.2806 40.3172 19.3791 40.3172 19.5761V23.7763C40.3172 25.0295 40.0523 25.9086 39.5223 26.4135C38.9924 26.9148 38.2708 27.1654 37.3578 27.1654C36.4447 27.1654 35.7232 26.9148 35.1932 26.4135C34.6633 25.9086 34.3983 25.0295 34.3983 23.7763Z" fill="#5F58C6"/>
<path d="M28.5537 32.3608H2.85537C1.27348 32.3608 0 31.0873 0 29.5055V2.85537C0 1.27349 1.27348 0 2.85537 0H20.9394L28.5537 32.3608Z" fill="#5F58C6"/>
<path d="M7.21973 21.5626C6.96908 21.5626 6.84375 21.4283 6.84375 21.1598V14.2633C6.84375 13.9948 6.96908 13.8605 7.21973 13.8605H11.8281C12.0967 13.8605 12.231 13.9768 12.231 14.2096V14.8434C12.231 15.0761 12.0967 15.1925 11.8281 15.1925H8.41211V16.9005H11.5435C11.812 16.9005 11.9463 17.0169 11.9463 17.2496V17.8834C11.9463 18.1162 11.812 18.2325 11.5435 18.2325H8.41211V20.2306H12C12.2686 20.2306 12.4028 20.347 12.4028 20.5797V21.2135C12.4028 21.4462 12.2686 21.5626 12 21.5626H7.21973ZM14.0947 21.5626C13.8441 21.5626 13.7188 21.4283 13.7188 21.1598V14.2633C13.7188 13.9948 13.8441 13.8605 14.0947 13.8605H14.8896C15.1976 13.8605 15.4303 13.9858 15.5879 14.2365L18.3271 18.6354H18.3647C18.3468 18.4205 18.3379 18.2057 18.3379 17.9908V14.2633C18.3379 13.9948 18.4632 13.8605 18.7139 13.8605H19.5303C19.7809 13.8605 19.9062 13.9948 19.9062 14.2633V21.1598C19.9062 21.4283 19.7809 21.5626 19.5303 21.5626H18.7891C18.4811 21.5626 18.2484 21.4373 18.0908 21.1866L15.2979 16.7072H15.2603C15.2782 16.922 15.2871 17.1368 15.2871 17.3517V21.1598C15.2871 21.4283 15.1618 21.5626 14.9111 21.5626H14.0947Z" fill="#C9E2FF"/>
</svg>
