<svg width="38" height="38" viewBox="0 0 38 38" fill="none" xmlns="http://www.w3.org/2000/svg">
<path d="M30.0974 4H11.4423C10.4078 4.00096 9.41597 4.34312 8.68437 4.95145C7.95278 5.55977 7.54114 6.38458 7.53976 7.24497V8.7782H5.98938C5.72698 8.7782 5.47533 8.8649 5.28978 9.01921C5.10424 9.17352 5 9.38282 5 9.60105C5 9.81929 5.10424 10.0286 5.28978 10.1829C5.47533 10.3372 5.72698 10.4239 5.98938 10.4239H7.53976V18.1771H5.98938C5.72698 18.1771 5.47533 18.2638 5.28978 18.4182C5.10424 18.5725 5 18.7818 5 19C5 19.2182 5.10424 19.4275 5.28978 19.5818C5.47533 19.7362 5.72698 19.8229 5.98938 19.8229H7.53976V27.5761H5.98938C5.72698 27.5761 5.47533 27.6628 5.28978 27.8171C5.10424 27.9714 5 28.1807 5 28.3989C5 28.6172 5.10424 28.8265 5.28978 28.9808C5.47533 29.1351 5.72698 29.2218 5.98938 29.2218H7.53976V30.755C7.54114 31.6154 7.95278 32.4402 8.68437 33.0486C9.41597 33.6569 10.4078 33.999 11.4423 34H30.0974C31.132 33.999 32.1238 33.6569 32.8554 33.0486C33.587 32.4402 33.9986 31.6154 34 30.755V7.24497C33.9986 6.38458 33.587 5.55977 32.8554 4.95145C32.1238 4.34312 31.132 4.00096 30.0974 4ZM32.0247 30.755C32.0231 31.178 31.8204 31.5833 31.4608 31.8823C31.1011 32.1814 30.6139 32.3501 30.1053 32.3514H11.4423C10.9337 32.3501 10.4465 32.1814 10.0868 31.8823C9.72723 31.5833 9.52449 31.178 9.52288 30.755V29.2218H11.0733C11.3357 29.2218 11.5873 29.1351 11.7729 28.9808C11.9584 28.8265 12.0626 28.6172 12.0626 28.3989C12.0626 28.1807 11.9584 27.9714 11.7729 27.8171C11.5873 27.6628 11.3357 27.5761 11.0733 27.5761H9.51503V19.8229H11.0654C11.3278 19.8229 11.5795 19.7362 11.765 19.5818C11.9505 19.4275 12.0548 19.2182 12.0548 19C12.0548 18.7818 11.9505 18.5725 11.765 18.4182C11.5795 18.2638 11.3278 18.1771 11.0654 18.1771H9.51503V10.4239H11.0654C11.3278 10.4239 11.5795 10.3372 11.765 10.1829C11.9505 10.0286 12.0548 9.81929 12.0548 9.60105C12.0548 9.38282 11.9505 9.17352 11.765 9.01921C11.5795 8.8649 11.3278 8.7782 11.0654 8.7782H9.51503V7.24497C9.51664 6.822 9.71938 6.41674 10.079 6.11765C10.4386 5.81856 10.9259 5.64995 11.4345 5.64861H30.0974C30.606 5.64995 31.0933 5.81856 31.4529 6.11765C31.8125 6.41674 32.0153 6.822 32.0169 7.24497L32.0247 30.755Z" fill="#5A5A5A"/>
<path d="M21.5044 19C22.5454 18.9991 23.5538 18.6774 24.3578 18.0898C25.1619 17.5022 25.7119 16.685 25.9142 15.7773C26.1165 14.8697 25.9585 13.9278 25.4672 13.1121C24.9759 12.2963 24.1817 11.6572 23.2198 11.3036C22.2578 10.95 21.1877 10.9038 20.1918 11.1728C19.1958 11.4418 18.3355 12.0094 17.7575 12.7789C17.1795 13.5484 16.9195 14.4722 17.0218 15.393C17.1241 16.3138 17.5823 17.1746 18.3184 17.8288C18.7366 18.2009 19.2332 18.4959 19.78 18.6969C20.3267 18.8979 20.9128 19.0009 21.5044 19ZM19.762 13.448C20.1648 13.0893 20.695 12.8658 21.2623 12.8156C21.8297 12.7655 22.399 12.8917 22.8734 13.1729C23.3477 13.4541 23.6977 13.8728 23.8637 14.3576C24.0297 14.8424 24.0014 15.3634 23.7837 15.8318C23.5659 16.3002 23.1722 16.687 22.6696 16.9262C22.167 17.1655 21.5866 17.2424 21.0273 17.1439C20.4681 17.0454 19.9645 16.7776 19.6025 16.3861C19.2405 15.9946 19.0424 15.5036 19.042 14.9968C19.0416 14.7092 19.1049 14.4244 19.2285 14.1586C19.352 13.8929 19.5333 13.6514 19.762 13.448Z" fill="#5A5A5A"/>
<path d="M21.5 20C19.7767 20.0017 18.1245 20.6415 16.9059 21.7788C15.6873 22.9162 15.0019 24.4582 15 26.0667C15.0009 26.3145 15.1071 26.5519 15.2952 26.7268C15.4833 26.9018 15.738 27 16.0035 27H26.9965C27.2626 27 27.5179 26.9013 27.7061 26.7257C27.8943 26.55 28 26.3118 28 26.0634C27.9972 24.4555 27.3114 22.9143 26.0929 21.7776C24.8744 20.641 23.2227 20.0017 21.5 20ZM17.1204 25.13C17.3466 24.2036 17.9033 23.3764 18.6991 22.7839C19.495 22.1914 20.4828 21.8687 21.5009 21.8687C22.5189 21.8687 23.5068 22.1914 24.3026 22.7839C25.0985 23.3764 25.6551 24.2036 25.8814 25.13H17.1204Z" fill="#5A5A5A"/>
</svg>
