<svg width="80" height="80" viewBox="0 0 80 80" fill="none" xmlns="http://www.w3.org/2000/svg">
<circle cx="40" cy="40" r="40" fill="#E1E1E1"/>
<circle cx="41.5" cy="38.5" r="38.5" fill="white"/>
<g clip-path="url(#clip0_164_4)">
<path d="M57.8598 18.5245L12.6762 36.0385C10.8579 36.854 10.2429 38.4874 12.2366 39.3738L23.8283 43.0766L51.8551 25.6659C53.3853 24.5728 54.952 24.8643 53.604 26.0667L29.5326 47.9742L28.7765 57.2455C29.4769 58.677 30.7593 58.6836 31.5772 57.9722L38.2369 51.6381L49.6427 60.2231C52.2917 61.7996 53.7332 60.7822 54.3031 57.8929L61.7844 22.2855C62.5611 18.7289 61.2364 17.1619 57.8598 18.5245Z" fill="#248BEA"/>
</g>
<defs>
<clipPath id="clip0_164_4">
<rect width="51" height="51" fill="white" transform="translate(11 14)"/>
</clipPath>
</defs>
</svg>
