<svg width="80" height="80" viewBox="0 0 80 80" fill="none" xmlns="http://www.w3.org/2000/svg">
<circle cx="40" cy="40" r="40" fill="#E1E1E1"/>
<circle cx="41.5" cy="38.5" r="38.5" fill="white"/>
<circle cx="41.0865" cy="37.7404" r="24.0481" fill="#8A5DEB"/>
<path fill-rule="evenodd" clip-rule="evenodd" d="M39.9134 9.00001C55.7863 9.00001 68.6538 21.8675 68.6538 37.7404C68.6538 53.6133 55.7863 66.4808 39.9134 66.4808C24.0406 66.4808 11.1731 53.6133 11.1731 37.7404C11.1731 21.8675 24.0406 9.00001 39.9134 9.00001ZM41.6348 20.7071C43.589 20.951 45.1682 21.4217 46.9009 22.2669C48.6051 23.1008 49.6959 23.8892 51.1388 25.3242C52.4909 26.6799 53.2408 27.7066 54.036 29.3005C55.1438 31.5241 55.7744 34.1673 55.8823 37.0772C55.9221 38.0698 55.8937 38.2911 55.6664 38.5746C55.2347 39.1249 54.286 39.034 53.9622 38.4158C53.8599 38.2116 53.8315 38.0358 53.7974 37.2417C53.7406 36.0221 53.6555 35.2337 53.485 34.2921C52.8147 30.5995 51.0422 27.6499 48.2131 25.5341C45.8556 23.7644 43.4185 22.9022 40.226 22.715C39.1466 22.6526 38.9591 22.613 38.7148 22.4258C38.2602 22.0684 38.2376 21.229 38.675 20.8376C38.942 20.5936 39.1295 20.5596 40.0555 20.5879C40.5383 20.605 41.2485 20.6617 41.6348 20.7071ZM28.6483 21.3197C28.8472 21.3877 29.154 21.5465 29.3301 21.66C30.4094 22.3747 33.4146 26.2148 34.3974 28.132C34.9597 29.2268 35.1472 30.0379 34.9712 30.6392C34.7893 31.2858 34.4883 31.6261 33.1419 32.7096C32.6022 33.1463 32.0966 33.5944 32.0171 33.7135C31.8126 34.0085 31.6478 34.587 31.6478 34.9954C31.6535 35.9427 32.2671 37.6614 33.0738 38.9831C33.6986 40.0098 34.8177 41.3257 35.9255 42.3354C37.2264 43.5266 38.3739 44.3376 39.6691 44.9787C41.3336 45.8068 42.3506 46.0166 43.0948 45.6707C43.2822 45.5856 43.481 45.4721 43.5436 45.4211C43.6003 45.37 44.0378 44.8368 44.515 44.247C45.4352 43.0898 45.6455 42.9026 46.276 42.6871C47.0771 42.4148 47.8951 42.4885 48.7188 42.9083C49.3437 43.2316 50.7071 44.0768 51.5876 44.6893C52.7465 45.5005 55.2233 47.5198 55.5586 47.9226C56.1493 48.6487 56.2516 49.5788 55.8539 50.6056C55.4335 51.6889 53.7974 53.7196 52.6556 54.5875C51.6217 55.3702 50.8889 55.6708 49.9231 55.7162C49.1278 55.7559 48.7984 55.6879 47.7815 55.2681C39.8056 51.9839 33.4373 47.0831 28.3813 40.3501C25.7398 36.8333 23.7287 33.1861 22.3539 29.4027C21.553 27.1962 21.5132 26.2375 22.1721 25.1087C22.4562 24.6323 23.6662 23.4524 24.5468 22.7945C26.0125 21.7054 26.6884 21.3026 27.2281 21.1892C27.5974 21.1098 28.2393 21.1722 28.6483 21.3197ZM42.0267 24.8194C45.475 25.3242 48.145 26.9239 49.8947 29.5217C50.8775 30.9852 51.491 32.7039 51.7012 34.5473C51.775 35.2223 51.775 36.4532 51.6956 36.6575C51.6216 36.8503 51.3831 37.1112 51.1786 37.2189C50.957 37.3324 50.4856 37.3211 50.2242 37.1849C49.7867 36.9637 49.6561 36.6121 49.6561 35.6591C49.6561 34.19 49.2755 32.6415 48.6166 31.4389C47.8667 30.0662 46.776 28.9319 45.4467 28.1434C44.3048 27.4627 42.6176 26.9579 41.0781 26.8331C40.5213 26.7877 40.2145 26.6743 40.0043 26.4304C39.6806 26.0616 39.6464 25.5625 39.9191 25.1485C40.2145 24.689 40.669 24.6152 42.0267 24.8194ZM43.2367 29.102C44.3559 29.3402 45.2137 29.7656 45.9465 30.452C46.8895 31.3425 47.4065 32.4202 47.6337 33.9688C47.7871 34.9784 47.7246 35.3755 47.3667 35.7045C47.0316 36.0108 46.4124 36.0221 46.0374 35.7328C45.7647 35.5286 45.6795 35.3131 45.617 34.7289C45.5432 33.9518 45.4069 33.4072 45.174 32.9024C44.6741 31.8303 43.7935 31.2745 42.3051 31.0929C41.6063 31.0078 41.3961 30.9285 41.169 30.6619C40.7542 30.1684 40.9132 29.3686 41.487 29.0736C41.703 28.9659 41.7939 28.9545 42.271 28.9829C42.5664 28.9999 43.0039 29.0509 43.2367 29.102Z" fill="white"/>
</svg>
