<svg width="80" height="80" viewBox="0 0 80 80" fill="none" xmlns="http://www.w3.org/2000/svg">
<circle cx="40" cy="40" r="40" fill="#E1E1E1"/>
<circle cx="41.5" cy="38.5" r="38.5" fill="white"/>
<path d="M37.9288 30.3333L38.2038 41.0515C38.1971 41.6446 37.9607 42.2121 37.5442 42.6346C37.1278 43.057 36.5637 43.3015 35.9707 43.3167C35.3777 43.3318 34.8019 43.1164 34.3644 42.7157C33.927 42.3151 33.6619 41.7604 33.625 41.1683L33.2881 28.099C33.2805 27.7932 33.3341 27.4891 33.4459 27.2044C33.5576 26.9197 33.7252 26.6602 33.9388 26.4413C34.1523 26.2224 34.4075 26.0485 34.6894 25.9298C34.9712 25.811 35.274 25.7499 35.5798 25.75H43.9146C44.5224 25.75 45.1053 25.9914 45.535 26.4212C45.9648 26.851 46.2063 27.4339 46.2063 28.0417C46.2063 28.6495 45.9648 29.2323 45.535 29.6621C45.1053 30.0919 44.5224 30.3333 43.9146 30.3333H37.9311H37.9288ZM45.8327 52.7917C45.8325 53.3116 45.6554 53.8161 45.3305 54.2221C45.0057 54.6281 44.5525 54.9116 44.0452 55.026C37.0556 56.6119 32.5136 54.5815 27.3481 48.3596C24.2773 44.6608 21.0988 38.1731 17.7186 28.8185C17.5939 28.4725 17.5543 28.1015 17.6032 27.737C17.6521 27.3724 17.7881 27.025 17.9996 26.724C18.211 26.4231 18.4919 26.1774 18.8183 26.0079C19.1447 25.8384 19.5072 25.7499 19.875 25.75H28.1204C28.6132 25.7498 29.0928 25.9084 29.4883 26.2024C29.8837 26.4963 30.1739 26.9098 30.3158 27.3817L31.3058 30.6817C31.4022 30.9726 31.4393 31.2799 31.4148 31.5854C31.3903 31.8909 31.3048 32.1884 31.1634 32.4603C31.0219 32.7322 30.8273 32.9729 30.5911 33.1683C30.355 33.3636 30.082 33.5096 29.7884 33.5976C29.4949 33.6856 29.1866 33.7138 28.8819 33.6806C28.5773 33.6473 28.2823 33.5533 28.0146 33.4041C27.7469 33.2549 27.5119 33.0534 27.3234 32.8118C27.1349 32.5701 26.9968 32.2931 26.9173 31.9971L26.4154 30.3333H23.175C25.9525 37.5727 28.5421 42.6235 30.875 45.4354C34.5554 49.8675 37.2413 51.3823 41.3754 50.8598C42.0102 46.1985 45.049 44.2254 49.5086 46.3681C49.8045 46.5109 50.0664 46.7157 50.2763 46.9685L53.2188 50.5046H57.6623C57.0069 49.1342 56.4111 48.1442 55.8931 47.5552C55.7561 47.4 55.6163 47.2472 55.4738 47.0969L54.9788 46.5767C52.1508 43.5929 51.2273 41.26 53.4365 38.2281C55.6686 35.1687 57.2177 32.5242 58.0931 30.3333H53.6611C50.2923 38.1548 47.5171 42.3577 44.6181 43.2927C44.2743 43.4036 43.9091 43.4317 43.5523 43.3746C43.1956 43.3174 42.8574 43.1768 42.5654 42.9641C42.2733 42.7514 42.0357 42.4726 41.8719 42.1506C41.7081 41.8285 41.6228 41.4723 41.6229 41.111V36.0602C41.6219 35.5136 41.8163 34.9846 42.171 34.5687C42.5257 34.1528 43.0175 33.8774 43.5574 33.7922C44.0974 33.707 44.65 33.8176 45.1156 34.1041C45.5811 34.3905 45.9289 34.834 46.0963 35.3544C47.2329 33.3904 48.5736 30.645 50.0288 27.1617C50.2024 26.7442 50.4957 26.3874 50.8716 26.1362C51.2476 25.885 51.6895 25.7506 52.1417 25.75H61.125C61.4562 25.7499 61.7836 25.8216 62.0844 25.9602C62.3852 26.0988 62.6525 26.301 62.8677 26.5528C63.0829 26.8045 63.2409 27.1 63.331 27.4188C63.421 27.7375 63.4409 28.072 63.3892 28.3992C62.8461 31.8344 60.7515 35.9731 57.1398 40.9254C56.7021 41.5258 56.8419 41.881 58.3017 43.4233L58.8058 43.955C59.0121 44.1727 59.1794 44.3538 59.3352 44.5325C60.6254 45.9992 61.9019 48.4535 63.2631 51.9644C63.3976 52.3117 63.4454 52.6865 63.4023 53.0565C63.3593 53.4264 63.2268 53.7803 63.0162 54.0874C62.8056 54.3946 62.5233 54.6458 62.1938 54.8194C61.8643 54.9929 61.4974 55.0835 61.125 55.0833H52.1417C51.8054 55.0835 51.4732 55.0097 51.1686 54.8672C50.8641 54.7246 50.5946 54.5167 50.3794 54.2583L47.0794 50.2915C45.9083 49.7758 45.8327 50.115 45.8327 52.7917Z" fill="#40A3FF"/>
</svg>
