<svg width="80" height="80" viewBox="0 0 80 80" fill="none" xmlns="http://www.w3.org/2000/svg">
<circle cx="40" cy="40" r="40" fill="#E1E1E1"/>
<circle cx="41.5" cy="38.5" r="38.5" fill="white"/>
<path d="M67 36.8432C67 50.5639 55.7919 61.6865 41.9635 61.6865C37.5736 61.6865 33.4494 60.5645 29.8612 58.5953L16 63L20.5192 49.6709C18.2395 45.9275 16.9265 41.5369 16.9265 36.8432C16.9265 23.1225 28.1357 12 41.9635 12C55.793 12 67 23.1225 67 36.8432ZM41.9635 15.9565C30.3559 15.9565 20.9141 25.3263 20.9141 36.8432C20.9141 41.4134 22.4039 45.6458 24.9239 49.0889L22.294 56.846L30.3831 54.275C33.7066 56.4573 37.688 57.73 41.9641 57.73C53.57 57.73 63.0135 48.3613 63.0135 36.8444C63.0135 25.3274 53.5706 15.9565 41.9635 15.9565ZM54.6064 42.5649C54.4517 42.3116 54.0432 42.1586 53.43 41.8543C52.8158 41.55 49.7977 40.0761 49.2367 39.8738C48.674 39.6709 48.2637 39.5689 47.8552 40.1781C47.4466 40.7878 46.2702 42.1586 45.9115 42.5649C45.5534 42.9723 45.1958 43.0233 44.5815 42.7184C43.9684 42.4141 41.9913 41.7704 39.647 39.6964C37.8229 38.0825 36.591 36.0901 36.2328 35.4798C35.8753 34.8707 36.1954 34.5414 36.502 34.2383C36.7785 33.9651 37.1163 33.5271 37.4228 33.1718C37.7305 32.8159 37.8325 32.5626 38.036 32.1558C38.2417 31.7495 38.1391 31.3942 37.985 31.0887C37.832 30.7844 36.6034 27.7879 36.0923 26.5684C35.5812 25.3501 35.0706 25.553 34.7119 25.553C34.3543 25.553 33.9446 25.502 33.5355 25.502C33.1264 25.502 32.4611 25.6544 31.8984 26.2636C31.3363 26.8733 29.7513 28.3466 29.7513 31.3426C29.7513 34.3391 31.9494 37.2342 32.2571 37.64C32.5637 38.0457 36.5014 44.3946 42.7404 46.833C48.98 49.2702 48.98 48.4571 50.1054 48.3551C51.2297 48.2536 53.7355 46.8823 54.2489 45.4611C54.7589 44.0376 54.7589 42.8187 54.6064 42.5649Z" fill="#59AD62"/>
</svg>
